<svg width="24" height="24" viewBox="0 0 24 24" fill="none" xmlns="http://www.w3.org/2000/svg">
<path fill-rule="evenodd" clip-rule="evenodd" d="M14 5.25C10.2721 5.25 7.25 8.27208 7.25 12C7.25 15.7279 10.2721 18.75 14 18.75C17.7279 18.75 20.75 15.7279 20.75 12C20.75 8.27208 17.7279 5.25 14 5.25ZM16.4215 9.37973C16.7641 9.61253 16.8532 10.079 16.6204 10.4216L14.6182 13.3682C14.4692 13.5877 14.315 13.8147 14.1617 13.9822C13.9876 14.1724 13.7124 14.4017 13.3047 14.4235C12.8969 14.4453 12.5989 14.2466 12.4055 14.076C12.2353 13.9258 12.0578 13.7165 11.8862 13.5141L11.4281 12.9742C11.1601 12.6583 11.199 12.185 11.5148 11.9171C11.8307 11.6491 12.3039 11.6879 12.5719 12.0038L13.0033 12.5122C13.0867 12.6105 13.1552 12.6912 13.2158 12.7601C13.2688 12.6851 13.3283 12.5976 13.4007 12.491L15.3797 9.57856C15.6125 9.23595 16.0789 9.14693 16.4215 9.37973Z" fill="currentColor"/>
<path d="M6.25 11.9998C6.25 10.4689 6.69388 9.04171 7.45996 7.83984C5.55825 8.77776 4.25 10.736 4.25 12.9998C4.25 16.1755 6.82436 18.7498 10 18.7498C10.0616 18.7498 10.1231 18.7489 10.1842 18.7469C7.83513 17.4156 6.25 14.8928 6.25 11.9998Z" fill="currentColor"/>
</svg>
