<svg width="24" height="24" viewBox="0 0 24 24" fill="none" xmlns="http://www.w3.org/2000/svg">
<path d="M20.7504 10.1664L12.5547 15.6302C12.2188 15.8541 11.7812 15.8541 11.4453 15.6302L3.24961 10.1664C3.13087 10.0872 3.13087 9.91275 3.24961 9.83359L11.4453 4.3698C11.7812 4.14587 12.2188 4.14587 12.5547 4.3698L20.7504 9.83359C20.8691 9.91275 20.8691 10.0872 20.7504 10.1664Z" stroke="currentColor" stroke-width="1.2"/>
<path d="M18 12L17.5876 15.2995C17.5321 15.7432 17.2816 16.139 16.9045 16.379L13.6106 18.4751C12.6279 19.1004 11.3721 19.1004 10.3894 18.4751L7.09555 16.379C6.71836 16.139 6.4679 15.7432 6.41244 15.2995L6 12" stroke="currentColor" stroke-width="1.2"/>
<path d="M20.5 15L20.5 10" stroke="currentColor" stroke-width="1.2" stroke-linecap="round"/>
</svg>
