<svg width="24" height="24" viewBox="0 0 24 24" fill="none" xmlns="http://www.w3.org/2000/svg">
<path fill-rule="evenodd" clip-rule="evenodd" d="M5 6.75C5 5.23122 6.23122 4 7.75 4H15.75C17.2688 4 18.5 5.23122 18.5 6.75V17.75C18.5 19.2688 17.2688 20.5 15.75 20.5H7.75C6.23122 20.5 5 19.2688 5 17.75V6.75ZM7.75 5.5C7.05964 5.5 6.5 6.05964 6.5 6.75V17.75C6.5 18.4404 7.05964 19 7.75 19H15.75C16.4404 19 17 18.4404 17 17.75V6.75C17 6.05964 16.4404 5.5 15.75 5.5H7.75Z" fill="currentColor"/>
<path d="M5.75 6.75C5.75 5.64543 6.64543 4.75 7.75 4.75H15.75C16.8546 4.75 17.75 5.64543 17.75 6.75V14.75C17.75 15.8546 16.8546 16.75 15.75 16.75H7.75C6.64543 16.75 5.75 15.8546 5.75 14.75V6.75Z" fill="currentColor"/>
<path fill-rule="evenodd" clip-rule="evenodd" d="M5 6.75C5 5.23122 6.23122 4 7.75 4H15.75C17.2688 4 18.5 5.23122 18.5 6.75V14.75C18.5 16.2688 17.2688 17.5 15.75 17.5H7.75C6.23122 17.5 5 16.2688 5 14.75V6.75ZM7.75 5.5C7.05964 5.5 6.5 6.05964 6.5 6.75V14.75C6.5 15.4404 7.05964 16 7.75 16H15.75C16.4404 16 17 15.4404 17 14.75V6.75C17 6.05964 16.4404 5.5 15.75 5.5H7.75Z" fill="currentColor"/>
</svg>
