<svg width="20" height="20" viewBox="0 0 20 20" fill="none" xmlns="http://www.w3.org/2000/svg">
<path d="M5.83337 5.5C5.83337 5.22386 6.05723 5 6.33337 5H7.83337C8.10952 5 8.33337 5.22386 8.33337 5.5V14.5C8.33337 14.7761 8.10952 15 7.83337 15H6.33337C6.05723 15 5.83337 14.7761 5.83337 14.5V5.5Z" fill="currentColor" stroke="currentColor" stroke-width="1.2"/>
<path d="M11.6667 5.5C11.6667 5.22386 11.8906 5 12.1667 5H13.6667C13.9429 5 14.1667 5.22386 14.1667 5.5V14.5C14.1667 14.7761 13.9429 15 13.6667 15H12.1667C11.8906 15 11.6667 14.7761 11.6667 14.5V5.5Z" fill="currentColor" stroke="currentColor" stroke-width="1.2"/>
</svg>
