<svg width="24" height="24" viewBox="0 0 24 24" fill="none" xmlns="http://www.w3.org/2000/svg">
<path d="M18.944 14.8025C18.9382 15.51 18.5589 16.1619 17.9467 16.5166L12.9281 19.4244C12.3129 19.7809 11.5547 19.7839 10.9366 19.4324L6.02073 16.6363C5.39054 16.2779 5.00367 15.6065 5.0096 14.8815L5.05604 9.19753C5.06182 8.48995 5.44106 7.8381 6.05332 7.48336L11.0719 4.5756C11.6871 4.21915 12.4453 4.21612 13.0634 4.56764L17.9793 7.36366C18.6095 7.7221 18.9963 8.39351 18.9904 9.11848L18.944 14.8025Z" fill="currentColor" stroke="currentColor" stroke-width="1.5"/>
<path fill-rule="evenodd" clip-rule="evenodd" d="M12.0001 14.4234C13.2624 14.4234 14.2858 13.3863 14.2858 12.1071C14.2858 10.8278 13.2624 9.79077 12.0001 9.79077C10.7377 9.79077 9.71436 10.8278 9.71436 12.1071C9.71436 13.3863 10.7377 14.4234 12.0001 14.4234Z" fill="currentColor" stroke="currentColor" stroke-width="1.5"/>
</svg>
